<svg xmlns="http://www.w3.org/2000/svg" viewBox="0 0 640 512">
  <path fill="#FF9900" d="M180.41 203.01c-.72 22.65 10.6 32.68 10.88 39.05a8.164 8.164 0 0 1-4.1 6.27l-12.8 8.96c-10.88 7.62-22.08 11.77-33.28 11.77-15.57 0-30.54-8.63-38.14-22.72-22.67-43.39-6.99-90.79 36.23-101.83 30.42-8.31 64.17 5.44 80.65 34.95 7.61 14.06 12.47 29.23 11.73 50.92-18.31-10.45-40.2-18.87-40.2-30.79-0-5.47 1.95-8.38 4.78-12.81 3.22-5.31 6.69-10.63 6.69-16.44 0-6.93-5.99-12.8-13.78-13.17-7.6-.3-13.55 6.11-13.97 13.79 0 1.71.15 3.22.54 4.83 1.34 5.31-1.07 8.04-2.54 9.45zM86.99 369.62c-10.3 13.47-13.17 31.34-9.63 48.14 3.78 15.93 16.01 30.24 31.34 36.95 14.99 6.78 32.86 6.93 47.31.15 10.18-4.62 21.81-16.24 19.29-32.71-2.2-14.08-14.98-19.59-24.08-22.39-16.29-5.08-42.07-4.92-55.25-20.67-2.98-4.01-2.85-8.61-.3-12.94 2.92-3.16 6.25-3.92 8.31-4.08 3.31-.15 7.6.6 13.17 4.08 10.18 5.84 22.82 9.97 35.69 7.92 11-1.5 20.78-7.31 26.11-15.07 9.79-13.3 9.04-40.92-17.05-44.86-5.31-.6-12.54 0-20.12 3.5-21.56 10.18-33.27 25.33-41.44 42.89-3.74 8.3-9.23 13.77-13.17 15.17zm202.84-180.55c6.25 17.97 15.93 33.27 26.56 45.99 11.78 14.08 26.86 26.11 43.73 30.64 7.77 2.09 16.29 2.95 25.26 2.95 31.29 0 57.31-8.3 74.91-23.38 6.25-5.53 12.54-12.24 17.97-19.59 5.53-7.31 9.79-16.14 14.08-26.4v-.15c.15-.3 0-.6-.15-.9-1.96-8.33-8.33-13.92-16.74-13.92s-15.65 5.85-15.33 14.52c0 .3 0 .6.15.9.15.6.15 1.06.3 1.96.15.45.15.75.15 1.2.15.45.15.75.15 1.05v1.21c.15 1.35.15 2.4.15 3.45 0 3.6-.15 7.04-.45 10.48-13.62 3.76-26.26 9.15-37.73 14.08-21.86 9.45-40.62 19.59-59.92 29.93-62.28-15.92-102.26-49.05-126.85-90.12-5.24 6.85-12.62 13.02-20.33 13.02-7.76 0-15.07-6.11-15.07-13.47 0-1.2.3-2.55.6-3.75 18.86-52.93 71.17-88.18 130.36-88.18 6.69 0 13.17.45 19.71 1.05 10.33-10.14 23.93-17.51 39.85-17.51 10.18 0 17.66.47 25.86 3.16 5.69 2.25 13.02 6.7 17.97 12.7-4.38.75-8.9 1.2-13.47 1.8-13.86 1.65-28.97 3.75-39.28 7.31-4.73 1.65-8.45 3.3-11 6.1-2.4 2.4-3.46 5.85-3 9.44 1.19 9.3 14.4 10.35 23.38 11.15 8.61.6 17.66.75 26.56.75 21.86 0 43.58-1.5 61.7-4.92 19.55-3.45 37.28-8.77 52.35-18.47 8.15-5.24 15.47-11.63 20.7-19.74 5.31-8.15 8.16-17.22 8.16-27.96 0-6.99-1.95-13.47-5.08-19.74-2.55-5.23-5.99-10.04-9.45-14.97-13.47-18.86-33.88-36.89-56.55-49.65-10.33-5.85-21.11-10.63-32.1-14.52-11-3.75-22.37-6.85-34.15-8.3-5.23-.75-10.63-1.06-16.14-1.06-10.63 0-21.11 1.2-31.44 3.45-30.72 7.16-55.69 25.86-71.62 44.71-16.74 19.59-25.11 39.73-31.15 59.77-4.08 13.92-6.25 27.67-6.25 40.92 0 12.7 1.95 24.63 5.38 35.84 2.4 7.61 5.99 14.82 9.45 22.27 9.3 19.59 21.41 38.01 35.39 54.3 2.99 3.45 6.1 6.7 9.3 9.9 1.35 1.35 2.69 2.55 4.08 3.9 1.35 1.2 2.7 2.55 4.08 3.75-8.02-3.75-15.92-8.02-23.53-12.85-38.16-24.18-64.86-56.87-79.98-95.18 0 .15-.15.3-.15.45-4.38 7.16-12.24 11.3-20.4 11.3-14.67 0-25.86-13.32-21.41-27.51 8.61-27.52 25.71-50.23 48.53-66.97 22.67-16.44 51.04-26.26 81.02-26.26 5.38 0 10.48.3 15.62 1.05 10.48 1.36 20.56 3.76 29.86 7.31 14.87 5.69 28.34 13.32 40.17 22.87 6.25 5.08 11.78 10.48 16.89 16.44 5.38 6.1 10.18 12.54 14.22 19.44 3.75 6.25 6.84 12.99 9.15 19.74 2.25 6.7 3.45 13.47 3.45 20.27 0 10.18-2.4 19.29-7.46 27.37-4.92 8.15-12.39 14.82-21.56 19.89-8.9 5.07-19.29 8.76-31 11-11.48 2.4-23.82 3.3-36.74 3.3-10.48 0-21.56-.45-33.72-1.65-1.5-.15-3.6-.15-6.1-.3-2.55-.15-5.24-.3-8.16-.45-2.84-.15-5.84-.3-8.75-.45-2.7-.15-5.38-.3-7.77-.3-23.67 0-36.43 5.84-44.26 17.22-7.76 11.29-5.38 26.56-.45 41.88z"/>
</svg>
